<svg width="89" height="89" viewBox="0 0 89 89" fill="none" xmlns="http://www.w3.org/2000/svg">
<path d="M12.5095 48H11.6935V44.508C11.6935 43.804 11.5695 43.276 11.3215 42.924C11.0735 42.564 10.7175 42.384 10.2535 42.384C9.94952 42.384 9.64552 42.464 9.34152 42.624C9.04552 42.776 8.78152 42.988 8.54952 43.26C8.32552 43.524 8.16552 43.828 8.06952 44.172V48H7.25352V39.24H8.06952V43.164C8.31752 42.7 8.66152 42.332 9.10152 42.06C9.54952 41.78 10.0255 41.64 10.5295 41.64C10.8895 41.64 11.1935 41.704 11.4415 41.832C11.6975 41.96 11.9015 42.148 12.0535 42.396C12.2135 42.636 12.3295 42.92 12.4015 43.248C12.4735 43.568 12.5095 43.932 12.5095 44.34V48ZM14.2496 48V41.748H15.0656V48H14.2496ZM14.2496 40.44V39.24H15.0656V40.44H14.2496ZM16.9949 48.972L17.1989 47.964H16.9229V46.824H17.7149V47.964L17.4149 48.972H16.9949ZM22.6168 48V41.748H23.4328V48H22.6168ZM22.6168 40.44V39.24H23.4328V40.44H22.6168ZM28.2301 47.7C28.1661 47.724 28.0661 47.768 27.9301 47.832C27.7941 47.896 27.6301 47.952 27.4381 48C27.2461 48.048 27.0381 48.072 26.8141 48.072C26.5821 48.072 26.3621 48.028 26.1541 47.94C25.9541 47.852 25.7941 47.72 25.6741 47.544C25.5541 47.36 25.4941 47.136 25.4941 46.872V42.396H24.6301V41.748H25.4941V39.636H26.3101V41.748H27.7501V42.396H26.3101V46.644C26.3261 46.868 26.4061 47.036 26.5501 47.148C26.7021 47.26 26.8741 47.316 27.0661 47.316C27.2901 47.316 27.4941 47.28 27.6781 47.208C27.8621 47.128 27.9741 47.072 28.0141 47.04L28.2301 47.7ZM28.6157 41.748L28.8197 40.464H28.5317V39.24H29.3237V40.464L29.0237 41.748H28.6157ZM32.2743 48.12C31.7623 48.12 31.2863 48.036 30.8463 47.868C30.4063 47.7 30.0263 47.444 29.7063 47.1L30.0423 46.524C30.3943 46.852 30.7463 47.092 31.0983 47.244C31.4583 47.388 31.8383 47.46 32.2383 47.46C32.7263 47.46 33.1223 47.364 33.4263 47.172C33.7303 46.972 33.8823 46.688 33.8823 46.32C33.8823 46.072 33.8063 45.884 33.6543 45.756C33.5103 45.62 33.2983 45.512 33.0183 45.432C32.7463 45.344 32.4183 45.252 32.0343 45.156C31.6023 45.036 31.2383 44.912 30.9423 44.784C30.6543 44.648 30.4343 44.48 30.2823 44.28C30.1383 44.072 30.0663 43.804 30.0663 43.476C30.0663 43.068 30.1663 42.732 30.3663 42.468C30.5743 42.196 30.8543 41.992 31.2063 41.856C31.5663 41.712 31.9663 41.64 32.4063 41.64C32.8863 41.64 33.3103 41.716 33.6783 41.868C34.0463 42.02 34.3463 42.232 34.5783 42.504L34.1823 43.056C33.9583 42.8 33.6903 42.612 33.3783 42.492C33.0743 42.364 32.7343 42.3 32.3583 42.3C32.1023 42.3 31.8583 42.336 31.6263 42.408C31.3943 42.472 31.2023 42.584 31.0503 42.744C30.9063 42.896 30.8343 43.108 30.8343 43.38C30.8343 43.604 30.8903 43.78 31.0023 43.908C31.1143 44.028 31.2823 44.132 31.5063 44.22C31.7303 44.3 32.0063 44.388 32.3343 44.484C32.8063 44.612 33.2183 44.744 33.5703 44.88C33.9223 45.008 34.1943 45.176 34.3863 45.384C34.5783 45.592 34.6743 45.884 34.6743 46.26C34.6743 46.844 34.4543 47.3 34.0143 47.628C33.5743 47.956 32.9943 48.12 32.2743 48.12ZM41.1336 48.12C40.6216 48.12 40.1456 48.036 39.7056 47.868C39.2656 47.7 38.8856 47.444 38.5656 47.1L38.9016 46.524C39.2536 46.852 39.6056 47.092 39.9576 47.244C40.3176 47.388 40.6976 47.46 41.0976 47.46C41.5856 47.46 41.9816 47.364 42.2856 47.172C42.5896 46.972 42.7416 46.688 42.7416 46.32C42.7416 46.072 42.6656 45.884 42.5136 45.756C42.3696 45.62 42.1576 45.512 41.8776 45.432C41.6056 45.344 41.2776 45.252 40.8936 45.156C40.4616 45.036 40.0976 44.912 39.8016 44.784C39.5136 44.648 39.2936 44.48 39.1416 44.28C38.9976 44.072 38.9256 43.804 38.9256 43.476C38.9256 43.068 39.0256 42.732 39.2256 42.468C39.4336 42.196 39.7136 41.992 40.0656 41.856C40.4256 41.712 40.8256 41.64 41.2656 41.64C41.7456 41.64 42.1696 41.716 42.5376 41.868C42.9056 42.02 43.2056 42.232 43.4376 42.504L43.0416 43.056C42.8176 42.8 42.5496 42.612 42.2376 42.492C41.9336 42.364 41.5936 42.3 41.2176 42.3C40.9616 42.3 40.7176 42.336 40.4856 42.408C40.2536 42.472 40.0616 42.584 39.9096 42.744C39.7656 42.896 39.6936 43.108 39.6936 43.38C39.6936 43.604 39.7496 43.78 39.8616 43.908C39.9736 44.028 40.1416 44.132 40.3656 44.22C40.5896 44.3 40.8656 44.388 41.1936 44.484C41.6656 44.612 42.0776 44.744 42.4296 44.88C42.7816 45.008 43.0536 45.176 43.2456 45.384C43.4376 45.592 43.5336 45.884 43.5336 46.26C43.5336 46.844 43.3136 47.3 42.8736 47.628C42.4336 47.956 41.8536 48.12 41.1336 48.12ZM47.5464 48.12C47.0984 48.12 46.6824 48.036 46.2984 47.868C45.9224 47.692 45.5944 47.456 45.3144 47.16C45.0424 46.856 44.8304 46.512 44.6784 46.128C44.5264 45.736 44.4504 45.324 44.4504 44.892C44.4504 44.444 44.5264 44.028 44.6784 43.644C44.8304 43.252 45.0464 42.908 45.3264 42.612C45.6064 42.308 45.9344 42.072 46.3104 41.904C46.6944 41.728 47.1104 41.64 47.5584 41.64C48.0064 41.64 48.4184 41.728 48.7944 41.904C49.1704 42.072 49.4984 42.308 49.7784 42.612C50.0584 42.908 50.2744 43.252 50.4264 43.644C50.5784 44.028 50.6544 44.444 50.6544 44.892C50.6544 45.324 50.5784 45.736 50.4264 46.128C50.2744 46.512 50.0584 46.856 49.7784 47.16C49.5064 47.456 49.1784 47.692 48.7944 47.868C48.4184 48.036 48.0024 48.12 47.5464 48.12ZM45.2784 44.904C45.2784 45.368 45.3784 45.792 45.5784 46.176C45.7864 46.552 46.0624 46.852 46.4064 47.076C46.7504 47.292 47.1304 47.4 47.5464 47.4C47.9624 47.4 48.3424 47.288 48.6864 47.064C49.0304 46.84 49.3064 46.536 49.5144 46.152C49.7224 45.76 49.8264 45.336 49.8264 44.88C49.8264 44.416 49.7224 43.992 49.5144 43.608C49.3064 43.224 49.0304 42.92 48.6864 42.696C48.3424 42.472 47.9624 42.36 47.5464 42.36C47.1304 42.36 46.7504 42.476 46.4064 42.708C46.0704 42.94 45.7984 43.248 45.5904 43.632C45.3824 44.008 45.2784 44.432 45.2784 44.904ZM55.2111 48.12C54.6911 48.12 54.2231 47.984 53.8071 47.712C53.3991 47.44 53.0751 47.104 52.8351 46.704V50.556H52.0191V41.748H52.7511V42.96C52.9991 42.568 53.3311 42.252 53.7471 42.012C54.1631 41.764 54.6071 41.64 55.0791 41.64C55.5111 41.64 55.9071 41.732 56.2671 41.916C56.6271 42.092 56.9391 42.332 57.2031 42.636C57.4671 42.94 57.6711 43.288 57.8151 43.68C57.9671 44.064 58.0431 44.464 58.0431 44.88C58.0431 45.464 57.9231 46.004 57.6831 46.5C57.4511 46.988 57.1231 47.38 56.6991 47.676C56.2751 47.972 55.7791 48.12 55.2111 48.12ZM54.9831 47.4C55.3271 47.4 55.6351 47.332 55.9071 47.196C56.1791 47.052 56.4111 46.86 56.6031 46.62C56.8031 46.38 56.9551 46.112 57.0591 45.816C57.1631 45.512 57.2151 45.2 57.2151 44.88C57.2151 44.544 57.1551 44.224 57.0351 43.92C56.9231 43.616 56.7591 43.348 56.5431 43.116C56.3271 42.884 56.0791 42.7 55.7991 42.564C55.5191 42.428 55.2151 42.36 54.8871 42.36C54.6791 42.36 54.4631 42.4 54.2391 42.48C54.0151 42.56 53.7991 42.676 53.5911 42.828C53.3911 42.972 53.2231 43.136 53.0871 43.32C52.9511 43.504 52.8671 43.7 52.8351 43.908V45.828C52.9631 46.124 53.1351 46.392 53.3511 46.632C53.5671 46.864 53.8151 47.052 54.0951 47.196C54.3831 47.332 54.6791 47.4 54.9831 47.4ZM64.6814 48H63.8654V44.508C63.8654 43.804 63.7414 43.276 63.4934 42.924C63.2454 42.564 62.8894 42.384 62.4254 42.384C62.1214 42.384 61.8174 42.464 61.5134 42.624C61.2174 42.776 60.9534 42.988 60.7214 43.26C60.4974 43.524 60.3374 43.828 60.2414 44.172V48H59.4254V39.24H60.2414V43.164C60.4894 42.7 60.8334 42.332 61.2734 42.06C61.7214 41.78 62.1974 41.64 62.7014 41.64C63.0614 41.64 63.3654 41.704 63.6134 41.832C63.8694 41.96 64.0734 42.148 64.2254 42.396C64.3854 42.636 64.5014 42.92 64.5734 43.248C64.6454 43.568 64.6814 43.932 64.6814 44.34V48ZM66.3015 48V46.824H67.0095V48H66.3015ZM71.1605 48.12C70.7125 48.12 70.2965 48.036 69.9125 47.868C69.5285 47.692 69.1965 47.456 68.9165 47.16C68.6365 46.856 68.4165 46.508 68.2565 46.116C68.1045 45.724 68.0285 45.304 68.0285 44.856C68.0285 44.272 68.1605 43.736 68.4245 43.248C68.6965 42.76 69.0685 42.372 69.5405 42.084C70.0125 41.788 70.5485 41.64 71.1485 41.64C71.7645 41.64 72.3005 41.788 72.7565 42.084C73.2205 42.38 73.5845 42.772 73.8485 43.26C74.1125 43.74 74.2445 44.268 74.2445 44.844C74.2445 44.908 74.2445 44.972 74.2445 45.036C74.2445 45.092 74.2405 45.136 74.2325 45.168H68.8805C68.9205 45.616 69.0445 46.016 69.2525 46.368C69.4685 46.712 69.7445 46.988 70.0805 47.196C70.4245 47.396 70.7965 47.496 71.1965 47.496C71.6045 47.496 71.9885 47.392 72.3485 47.184C72.7165 46.976 72.9725 46.704 73.1165 46.368L73.8245 46.56C73.6965 46.856 73.5005 47.124 73.2365 47.364C72.9725 47.604 72.6605 47.792 72.3005 47.928C71.9485 48.056 71.5685 48.12 71.1605 48.12ZM68.8565 44.58H73.4765C73.4445 44.124 73.3205 43.724 73.1045 43.38C72.8965 43.036 72.6205 42.768 72.2765 42.576C71.9405 42.376 71.5685 42.276 71.1605 42.276C70.7525 42.276 70.3805 42.376 70.0445 42.576C69.7085 42.768 69.4325 43.04 69.2165 43.392C69.0085 43.736 68.8885 44.132 68.8565 44.58ZM78.2035 48.12C77.7555 48.12 77.3395 48.036 76.9555 47.868C76.5715 47.692 76.2395 47.456 75.9595 47.16C75.6795 46.856 75.4595 46.508 75.2995 46.116C75.1475 45.724 75.0715 45.304 75.0715 44.856C75.0715 44.272 75.2035 43.736 75.4675 43.248C75.7395 42.76 76.1115 42.372 76.5835 42.084C77.0555 41.788 77.5915 41.64 78.1915 41.64C78.8075 41.64 79.3435 41.788 79.7995 42.084C80.2635 42.38 80.6275 42.772 80.8915 43.26C81.1555 43.74 81.2875 44.268 81.2875 44.844C81.2875 44.908 81.2875 44.972 81.2875 45.036C81.2875 45.092 81.2835 45.136 81.2755 45.168H75.9235C75.9635 45.616 76.0875 46.016 76.2955 46.368C76.5115 46.712 76.7875 46.988 77.1235 47.196C77.4675 47.396 77.8395 47.496 78.2395 47.496C78.6475 47.496 79.0315 47.392 79.3915 47.184C79.7595 46.976 80.0155 46.704 80.1595 46.368L80.8675 46.56C80.7395 46.856 80.5435 47.124 80.2795 47.364C80.0155 47.604 79.7035 47.792 79.3435 47.928C78.9915 48.056 78.6115 48.12 78.2035 48.12ZM75.8995 44.58H80.5195C80.4875 44.124 80.3635 43.724 80.1475 43.38C79.9395 43.036 79.6635 42.768 79.3195 42.576C78.9835 42.376 78.6115 42.276 78.2035 42.276C77.7955 42.276 77.4235 42.376 77.0875 42.576C76.7515 42.768 76.4755 43.04 76.2595 43.392C76.0515 43.736 75.9315 44.132 75.8995 44.58Z" fill="black"/>
</svg>
