<svg width="108" height="70" viewBox="0 0 108 70" fill="none" xmlns="http://www.w3.org/2000/svg">
<path d="M0.630005 1.00001H9.99001V1.57001H8.25001V10.87H14.22V1.57001H12.45V1.00001H21.84V1.57001H20.07V21.43H21.84V22H12.45V21.43H14.22V11.65H8.25001V21.43H9.99001V22H0.630005V21.43H2.40001V1.57001H0.630005V1.00001ZM27.181 5.65001C26.121 5.65001 25.361 5.38001 24.901 4.84001C24.461 4.30001 24.241 3.63001 24.241 2.83001C24.241 2.03001 24.481 1.37001 24.961 0.850006C25.461 0.330006 26.211 0.0700073 27.211 0.0700073C28.211 0.0700073 28.971 0.310009 29.491 0.790009C30.011 1.25001 30.271 1.92001 30.271 2.80001C30.271 3.66001 30.021 4.35001 29.521 4.87001C29.021 5.39001 28.241 5.65001 27.181 5.65001ZM22.651 7.72001H30.001V21.46H31.681V22H22.771V21.46H24.421V8.26001H22.651V7.72001ZM42.312 8.56001C41.572 8.56001 40.922 9.04001 40.362 10C39.802 10.96 39.522 12.1 39.522 13.42V21.46H41.652V22H32.292V21.46H33.942V8.26001H32.292V7.72001H39.522V10.6C39.782 9.58001 40.282 8.80001 41.022 8.26001C41.762 7.70001 42.602 7.42001 43.542 7.42001C44.482 7.42001 45.242 7.69001 45.822 8.23001C46.422 8.75001 46.722 9.50001 46.722 10.48C46.722 11.44 46.502 12.18 46.062 12.7C45.622 13.22 44.942 13.48 44.022 13.48C43.122 13.48 42.452 13.18 42.012 12.58C41.592 11.98 41.542 11.15 41.862 10.09H42.942C43.442 9.07001 43.232 8.56001 42.312 8.56001ZM54.889 22.3C52.309 22.3 50.369 21.64 49.069 20.32C47.789 18.98 47.149 17.13 47.149 14.77C47.149 12.39 47.869 10.57 49.309 9.31001C50.769 8.05001 52.619 7.42001 54.859 7.42001C59.399 7.42001 61.579 9.70001 61.399 14.26H52.939V15.43C52.939 17.39 53.189 18.87 53.689 19.87C54.189 20.87 55.059 21.37 56.299 21.37C58.619 21.37 60.139 20.13 60.859 17.65L61.399 17.74C61.019 19.18 60.329 20.3 59.329 21.1C58.349 21.9 56.869 22.3 54.889 22.3ZM52.969 13.66H56.059V12.19C56.059 10.57 55.959 9.47001 55.759 8.89001C55.579 8.29001 55.199 7.99001 54.619 7.99001C54.059 7.99001 53.639 8.31001 53.359 8.95001C53.099 9.57001 52.969 10.65 52.969 12.19V13.66ZM9.75001 61.67C10.75 61.67 11.63 61.4 12.39 60.86C13.17 60.32 13.56 59.51 13.56 58.43C13.56 57.33 13.14 56.49 12.3 55.91C11.48 55.33 10.3 54.83 8.76001 54.41C7.24001 53.97 6.13001 53.59 5.43001 53.27C4.75001 52.95 4.10001 52.53 3.48001 52.01C2.24001 50.97 1.62001 49.36 1.62001 47.18C1.62001 45.4 2.25001 43.87 3.51001 42.59C4.79001 41.31 6.53001 40.67 8.73001 40.67C9.79001 40.67 10.89 40.83 12.03 41.15C13.19 41.45 13.91 41.6 14.19 41.6C14.47 41.6 14.72 41.4 14.94 41H15.27L15.48 47.06H15C14.04 45.32 13.03 43.93 11.97 42.89C10.93 41.83 9.79001 41.3 8.55001 41.3C7.33001 41.3 6.38 41.59 5.7 42.17C5.02 42.73 4.68001 43.49 4.68001 44.45C4.68001 45.39 5.08 46.12 5.88 46.64C6.70001 47.14 7.70001 47.55 8.88 47.87C10.06 48.19 10.83 48.41 11.19 48.53C11.57 48.65 12.03 48.82 12.57 49.04C13.13 49.24 13.58 49.46 13.92 49.7C14.28 49.92 14.65 50.21 15.03 50.57C15.43 50.91 15.74 51.29 15.96 51.71C16.5 52.67 16.77 53.81 16.77 55.13C16.77 57.29 16.09 59.03 14.73 60.35C13.39 61.65 11.62 62.3 9.42001 62.3C8.28001 62.3 6.97001 62.15 5.49001 61.85C4.03001 61.55 3.22001 61.4 3.06001 61.4C2.78001 61.4 2.51001 61.7 2.25001 62.3H1.83001L1.53001 55.16H2.04001C2.92001 56.9 4.04001 58.42 5.40001 59.72C6.78001 61.02 8.23001 61.67 9.75001 61.67ZM27.978 56.09V53.54C27.978 51.6 27.868 50.19 27.648 49.31C27.448 48.41 26.968 47.96 26.208 47.96C25.768 47.96 25.408 48.09 25.128 48.35C24.868 48.59 24.678 49 24.558 49.58C24.378 50.48 24.288 51.85 24.288 53.69V56.03C24.288 58.21 24.348 59.52 24.468 59.96C24.608 60.4 24.748 60.76 24.888 61.04C25.108 61.52 25.538 61.76 26.178 61.76C26.958 61.76 27.468 61.31 27.708 60.41C27.888 59.77 27.978 58.33 27.978 56.09ZM26.118 62.3C23.618 62.3 21.728 61.66 20.448 60.38C19.168 59.1 18.528 57.27 18.528 54.89C18.528 52.49 19.208 50.65 20.568 49.37C21.948 48.07 23.878 47.42 26.358 47.42C28.838 47.42 30.688 48.02 31.908 49.22C33.128 50.4 33.738 52.21 33.738 54.65C33.738 59.75 31.198 62.3 26.118 62.3ZM45.527 53.93C45.527 51.87 45.427 50.49 45.227 49.79C45.027 49.07 44.637 48.71 44.057 48.71C43.477 48.71 42.957 49.09 42.497 49.85C42.037 50.59 41.807 51.59 41.807 52.85V58.34C41.807 59.2 41.977 59.93 42.317 60.53C42.657 61.13 43.157 61.43 43.817 61.43C44.477 61.43 44.927 60.99 45.167 60.11C45.407 59.23 45.527 57.69 45.527 55.49V53.93ZM41.747 47.72V50.09C42.527 48.31 43.907 47.42 45.887 47.42C47.607 47.42 48.937 48.04 49.877 49.28C50.837 50.52 51.317 52.4 51.317 54.92C51.317 57.44 50.797 59.3 49.757 60.5C48.737 61.7 47.197 62.3 45.137 62.3C44.177 62.3 43.457 62.18 42.977 61.94C42.497 61.7 42.107 61.33 41.807 60.83V68.6H45.677V69.14H34.577V68.6H36.227V48.26H34.637V47.72H41.747ZM52.214 39.5H59.444V50.48C59.764 49.56 60.254 48.82 60.914 48.26C61.574 47.7 62.574 47.42 63.914 47.42C67.014 47.42 68.564 49.09 68.564 52.43V61.46H70.244V62H61.754V61.46H62.984V51.71C62.984 50.51 62.904 49.74 62.744 49.4C62.584 49.04 62.294 48.86 61.874 48.86C61.234 48.86 60.664 49.28 60.164 50.12C59.684 50.96 59.444 51.98 59.444 53.18V61.46H60.734V62H52.214V61.46H53.864V40.04H52.214V39.5ZM74.33 62.3C73.47 62.3 72.82 62.05 72.38 61.55C71.96 61.03 71.75 60.41 71.75 59.69C71.75 58.95 71.97 58.33 72.41 57.83C72.87 57.33 73.51 57.08 74.33 57.08C75.15 57.08 75.8 57.29 76.28 57.71C76.76 58.13 77 58.76 77 59.6C77 60.44 76.77 61.1 76.31 61.58C75.87 62.06 75.21 62.3 74.33 62.3ZM85.944 62.3C83.364 62.3 81.424 61.64 80.124 60.32C78.844 58.98 78.204 57.13 78.204 54.77C78.204 52.39 78.924 50.57 80.364 49.31C81.824 48.05 83.674 47.42 85.914 47.42C90.454 47.42 92.634 49.7 92.454 54.26H83.994V55.43C83.994 57.39 84.244 58.87 84.744 59.87C85.244 60.87 86.114 61.37 87.354 61.37C89.674 61.37 91.194 60.13 91.914 57.65L92.454 57.74C92.074 59.18 91.384 60.3 90.384 61.1C89.404 61.9 87.924 62.3 85.944 62.3ZM84.024 53.66H87.114V52.19C87.114 50.57 87.014 49.47 86.814 48.89C86.634 48.29 86.254 47.99 85.674 47.99C85.114 47.99 84.694 48.31 84.414 48.95C84.154 49.57 84.024 50.65 84.024 52.19V53.66ZM101.413 62.3C98.833 62.3 96.893 61.64 95.593 60.32C94.313 58.98 93.673 57.13 93.673 54.77C93.673 52.39 94.393 50.57 95.833 49.31C97.293 48.05 99.143 47.42 101.383 47.42C105.923 47.42 108.103 49.7 107.923 54.26H99.463V55.43C99.463 57.39 99.713 58.87 100.213 59.87C100.713 60.87 101.583 61.37 102.823 61.37C105.143 61.37 106.663 60.13 107.383 57.65L107.923 57.74C107.543 59.18 106.853 60.3 105.853 61.1C104.873 61.9 103.393 62.3 101.413 62.3ZM99.493 53.66H102.583V52.19C102.583 50.57 102.483 49.47 102.283 48.89C102.103 48.29 101.723 47.99 101.143 47.99C100.583 47.99 100.163 48.31 99.883 48.95C99.623 49.57 99.493 50.65 99.493 52.19V53.66Z" fill="white"/>
</svg>
